<mxfile host="app.diagrams.net" modified="2021-10-14T04:04:52.279Z" agent="5.0 (Windows NT 10.0; Win64; x64) AppleWebKit/537.36 (KHTML, like Gecko) Chrome/94.0.4606.71 Safari/537.36" etag="hlhk_oZXXZHT_IMTj-Pm" version="15.5.2" type="github">
  <diagram id="e9cKuAw5dMrZ5RfQKKAO" name="Page-1">
    <mxGraphModel dx="1422" dy="705" grid="1" gridSize="10" guides="1" tooltips="1" connect="1" arrows="1" fold="1" page="1" pageScale="1" pageWidth="827" pageHeight="1169" math="0" shadow="0">
      <root>
        <mxCell id="0" />
        <mxCell id="1" parent="0" />
        <mxCell id="L-KIR0a4kEylLBIm_Kqx-3" value="" style="edgeStyle=orthogonalEdgeStyle;rounded=0;orthogonalLoop=1;jettySize=auto;html=1;" edge="1" parent="1" source="L-KIR0a4kEylLBIm_Kqx-1" target="L-KIR0a4kEylLBIm_Kqx-2">
          <mxGeometry relative="1" as="geometry" />
        </mxCell>
        <mxCell id="L-KIR0a4kEylLBIm_Kqx-5" value="." style="edgeStyle=orthogonalEdgeStyle;rounded=0;orthogonalLoop=1;jettySize=auto;html=1;" edge="1" parent="1" source="L-KIR0a4kEylLBIm_Kqx-1">
          <mxGeometry relative="1" as="geometry">
            <mxPoint x="490" y="110" as="targetPoint" />
          </mxGeometry>
        </mxCell>
        <mxCell id="L-KIR0a4kEylLBIm_Kqx-6" style="edgeStyle=orthogonalEdgeStyle;rounded=0;orthogonalLoop=1;jettySize=auto;html=1;exitX=1;exitY=0.75;exitDx=0;exitDy=0;entryX=0;entryY=0.5;entryDx=0;entryDy=0;" edge="1" parent="1" source="L-KIR0a4kEylLBIm_Kqx-1" target="L-KIR0a4kEylLBIm_Kqx-4">
          <mxGeometry relative="1" as="geometry" />
        </mxCell>
        <mxCell id="L-KIR0a4kEylLBIm_Kqx-1" value="tankDiwMode" style="rounded=1;whiteSpace=wrap;html=1;" vertex="1" parent="1">
          <mxGeometry x="80" y="80" width="120" height="60" as="geometry" />
        </mxCell>
        <mxCell id="L-KIR0a4kEylLBIm_Kqx-2" value="tankDiwMode" style="rounded=1;whiteSpace=wrap;html=1;" vertex="1" parent="1">
          <mxGeometry x="280" y="80" width="120" height="60" as="geometry" />
        </mxCell>
        <mxCell id="L-KIR0a4kEylLBIm_Kqx-4" value="" style="whiteSpace=wrap;html=1;rounded=1;" vertex="1" parent="1">
          <mxGeometry x="280" y="150" width="120" height="60" as="geometry" />
        </mxCell>
        <mxCell id="L-KIR0a4kEylLBIm_Kqx-7" value="tankAutoStart" style="rounded=1;whiteSpace=wrap;html=1;" vertex="1" parent="1">
          <mxGeometry x="80" y="150" width="120" height="60" as="geometry" />
        </mxCell>
        <mxCell id="L-KIR0a4kEylLBIm_Kqx-8" value="tankWaitForPariTank" style="rounded=1;whiteSpace=wrap;html=1;" vertex="1" parent="1">
          <mxGeometry x="80" y="220" width="120" height="60" as="geometry" />
        </mxCell>
        <mxCell id="L-KIR0a4kEylLBIm_Kqx-9" value="tankDrainStart" style="rounded=1;whiteSpace=wrap;html=1;" vertex="1" parent="1">
          <mxGeometry x="80" y="300" width="120" height="60" as="geometry" />
        </mxCell>
        <mxCell id="L-KIR0a4kEylLBIm_Kqx-10" value="tankGravityDrain" style="rounded=1;whiteSpace=wrap;html=1;fillColor=#f8cecc;strokeColor=#b85450;" vertex="1" parent="1">
          <mxGeometry x="80" y="370" width="120" height="60" as="geometry" />
        </mxCell>
        <mxCell id="L-KIR0a4kEylLBIm_Kqx-11" value="tankGravityDrainPost" style="rounded=1;whiteSpace=wrap;html=1;" vertex="1" parent="1">
          <mxGeometry x="80" y="440" width="120" height="60" as="geometry" />
        </mxCell>
        <mxCell id="L-KIR0a4kEylLBIm_Kqx-12" value="tankWaitForCharge" style="rounded=1;whiteSpace=wrap;html=1;" vertex="1" parent="1">
          <mxGeometry x="80" y="510" width="120" height="60" as="geometry" />
        </mxCell>
        <mxCell id="L-KIR0a4kEylLBIm_Kqx-13" value="tankCharge" style="rounded=1;whiteSpace=wrap;html=1;fillColor=#f8cecc;strokeColor=#b85450;" vertex="1" parent="1">
          <mxGeometry x="80" y="580" width="120" height="60" as="geometry" />
        </mxCell>
        <mxCell id="L-KIR0a4kEylLBIm_Kqx-14" value="tankSubCir" style="rounded=1;whiteSpace=wrap;html=1;" vertex="1" parent="1">
          <mxGeometry x="80" y="650" width="120" height="60" as="geometry" />
        </mxCell>
        <mxCell id="L-KIR0a4kEylLBIm_Kqx-15" value="tankChargeSubCirHeat" style="rounded=1;whiteSpace=wrap;html=1;" vertex="1" parent="1">
          <mxGeometry x="80" y="730" width="120" height="60" as="geometry" />
        </mxCell>
        <mxCell id="L-KIR0a4kEylLBIm_Kqx-16" value="tankPreSubTemperatureCheck" style="rounded=1;whiteSpace=wrap;html=1;" vertex="1" parent="1">
          <mxGeometry x="80" y="800" width="120" height="60" as="geometry" />
        </mxCell>
        <mxCell id="L-KIR0a4kEylLBIm_Kqx-17" value="tankSubTemperatureCheck" style="rounded=1;whiteSpace=wrap;html=1;" vertex="1" parent="1">
          <mxGeometry x="80" y="870" width="120" height="60" as="geometry" />
        </mxCell>
      </root>
    </mxGraphModel>
  </diagram>
</mxfile>
